# xmcd
#
# Track frame offsets: 
#        150
#        39805
#        63858
#        98308
#        139214
#        163418
#        197737
#        224604
#
# Disc length: 3388 seconds
#
# Revision: 0
# Processed by: cddbd v1.5.2PL0 Copyright (c) Steve Scherf et al.
# Submitted via: ExactAudioCopy v0.99pb5
#
DISCID=6c0d3a08
DTITLE=Blues Traveler - Cheatnut Cabaret, Philadelphia, Pa. 1991-01-28
DTITLE=CD 1
DYEAR=1991
DGENRE=Blues
TTITLE0=01 Ivory Tusk
TTITLE1=02 Weird Chick
TTITLE2=03 Mulling It Over
TTITLE3=04 Warmer Days
TTITLE4=05 What's For Breakfast
TTITLE5=06 But Anyway
TTITLE6=07 Outta My Hands
TTITLE7=08 Gina
EXTD=
EXTT0=
EXTT1=
EXTT2=
EXTT3=
EXTT4=
EXTT5=
EXTT6=
EXTT7=
PLAYORDER=
